<?xml version="1.0" standalone="no"?>
<!DOCTYPE svg PUBLIC "-//W3C//DTD SVG 20010904//EN"
 "http://www.w3.org/TR/2001/REC-SVG-20010904/DTD/svg10.dtd">
<svg version="1.0" xmlns="http://www.w3.org/2000/svg"
 width="500.000000pt" height="500.000000pt" viewBox="0 0 500.000000 500.000000"
 preserveAspectRatio="xMidYMid meet">
<metadata>
Created by potrace 1.14, written by Peter Selinger 2001-2017
</metadata>
<g transform="translate(0.000000,500.000000) scale(0.100000,-0.100000)"
fill="#000000" stroke="none">
<path d="M879 4066 c-2 -2 -35 -7 -74 -10 -142 -14 -147 -15 -284 -42 -111
-22 -232 -87 -304 -161 -74 -77 -104 -123 -146 -225 -19 -44 -19 -48 -3 -57
13 -8 25 4 62 62 140 218 305 296 685 322 l90 6 -2 -58 c-1 -32 -2 -63 -2 -69
-1 -6 -20 -17 -43 -24 -53 -17 -60 -23 -53 -42 5 -13 13 -14 46 -5 22 5 43 7
46 3 3 -3 6 -414 6 -914 0 -903 0 -908 -21 -949 -12 -22 -38 -55 -59 -72 -38
-31 -72 -42 -165 -50 -5 -1 -8 -8 -8 -16 0 -13 72 -15 590 -15 l589 0 0 -223
c-1 -247 -7 -278 -60 -334 -36 -37 -108 -63 -172 -63 -26 0 -37 -4 -35 -12 7
-20 685 -24 685 -4 0 9 -18 15 -59 20 -74 7 -116 25 -153 64 -50 53 -54 81
-52 334 l2 232 68 12 c147 28 307 93 429 175 31 22 98 78 147 125 l90 85 43
-47 c57 -63 51 -56 148 -164 47 -52 104 -115 127 -140 23 -25 51 -56 63 -70
12 -14 54 -61 93 -104 40 -44 77 -84 82 -90 6 -7 30 -34 55 -61 25 -28 79 -88
120 -134 41 -46 84 -94 95 -105 11 -12 58 -64 105 -116 247 -274 418 -419 583
-494 147 -67 209 -81 357 -81 159 0 303 26 298 54 -3 11 -13 16 -33 15 -159
-8 -198 -5 -310 28 -193 56 -380 207 -638 513 l-127 150 0 950 c1 898 2 952
19 990 19 43 68 90 110 107 14 6 47 12 73 13 51 3 71 11 63 26 -4 5 -147 9
-345 9 -305 0 -338 -2 -336 -16 2 -12 16 -17 63 -19 33 -2 74 -10 91 -19 40
-21 90 -82 102 -126 6 -21 10 -366 10 -890 l0 -855 -41 45 c-54 59 -95 104
-199 220 -47 52 -87 97 -90 100 -5 4 -298 331 -385 429 -16 18 -40 44 -52 58
-27 29 -27 26 -8 62 33 65 68 192 85 312 10 71 14 289 7 339 -3 14 -8 50 -12
80 -27 208 -143 438 -298 593 -146 146 -337 247 -567 301 -59 13 -96 19 -215
32 -49 5 -971 14 -976 10z m1120 -133 c320 -80 539 -294 651 -633 58 -178 70
-480 27 -684 l-12 -58 -81 88 c-44 49 -102 114 -129 144 -27 30 -87 97 -134
149 -112 123 -179 198 -271 301 -285 319 -406 427 -590 528 -83 45 -196 78
-280 81 -30 1 -56 4 -58 6 -4 3 -5 54 -3 88 1 17 21 18 394 16 376 -2 396 -3
486 -26z m-814 -193 c114 -45 148 -66 241 -144 97 -81 200 -190 304 -322 l99
-125 0 -649 0 -650 -102 0 c-391 -2 -600 -1 -604 4 -3 3 -6 433 -7 955 l-1
950 25 -5 c14 -3 34 -9 45 -14z m900 -875 c50 -55 92 -102 95 -105 3 -3 25
-28 50 -55 25 -28 84 -93 131 -145 47 -52 101 -112 119 -133 19 -21 46 -52 62
-69 15 -17 28 -35 28 -40 0 -16 -96 -150 -144 -201 -96 -101 -252 -197 -366
-227 -25 -6 -53 -13 -62 -16 -17 -5 -18 26 -18 546 0 303 4 550 8 548 5 -1 48
-48 97 -103z"/>
</g>
</svg>
